# xmcd
#
# Track frame offsets:
#	150
#	27159
#	50389
#	73844
#	94898
#	118503
#	142389
#	171072
#	197276
#	232271
#	258304
#
# Disc length: 3844 seconds
#
# Revision: 0
# Processed by: cddbd v1.4PL0 Copyright (c) Steve Scherf et al.
# Submitted via: dBpowerAMP V4.0
#
DISCID=9e0f020b
DTITLE=AR Rahman - Priyuraalu Pilichindi - Premikula Roju
DYEAR=1900
DGENRE=Blues
TTITLE0=Priyuralu Pilichindi - Yemi Cheyamanduve
TTITLE1=Priyuralu Pilichindi - Smaiyai
TTITLE2=Priyuralu Pilichindi - Doboochulaatelara
TTITLE3=Priyuralu Pilichindi - Palike Gorinka
TTITLE4=Priyuralu Pilichindi - Yemaaye Naa Kavitha
TTITLE5=Priyuralu Pilichindi - Thongi Choose
TTITLE6=Premikula Roju - O Maria
TTITLE7=Premikula Roju - Vaalu Kanuladaana
TTITLE8=Premikula Roju - Dandiya
TTITLE9=Premikula Roju - Roja Roja
TTITLE10=Premikula Roju - Prema Ane
EXTD=Priyuraalu Pilichindi - Premikula Roju\nLang - Telugu
EXTT0=
EXTT1=
EXTT2=
EXTT3=
EXTT4=
EXTT5=
EXTT6=
EXTT7=
EXTT8=
EXTT9=
EXTT10=
PLAYORDER=
